<svg width="720" height="451" viewBox="0 0 720 451" fill="none" xmlns="http://www.w3.org/2000/svg">
<path d="M484.698 102.92C474.353 102.92 465.968 111.251 465.968 121.529C465.968 131.807 474.353 140.138 484.698 140.138C495.044 140.138 503.429 131.807 503.429 121.529C503.429 111.251 495.044 102.92 484.698 102.92Z" fill="#6759C0"/>
<path d="M719.953 207.754C720.656 213.405 713.286 216.079 710.17 211.339C694.846 188.312 676.41 167.497 655.428 149.575C655.428 149.542 642.462 139.09 642.432 139.06C598.029 105.123 543.78 83.3082 484.698 78.5078C484.698 78.5078 484.056 78.447 484.026 78.447C476.075 77.809 468.032 77.4748 459.928 77.4748C422.131 77.4748 385.988 84.4323 352.714 97.1321C409.838 122.684 454.24 171.204 474.026 230.905C479.744 248.162 483.383 266.304 484.698 285.137C484.851 287.173 484.974 289.239 485.065 291.305C485.126 292.46 485.249 297.139 485.157 301.392C485.035 307.134 484.671 313.029 484.637 313.18C479.683 367.686 445.158 413.658 397.116 435.256C397.116 435.256 391.306 437.839 388.86 438.69C378.676 442.521 368.004 445.313 356.903 446.893C343.784 449.263 330.298 450.569 316.507 450.569C291.92 450.569 268.281 446.589 246.144 439.358C234.796 435.621 223.851 431.033 213.359 425.655C200.821 419.701 188.65 413.047 176.938 405.786C171.495 402.443 166.174 398.95 160.944 395.334C110.001 360.121 68.2553 312.664 40.0908 257.247C35.7178 248.648 31.6813 239.868 27.9505 230.905C9.96924 187.337 0 139.637 0 89.6277V87.106C0.0611607 82.9436 4.61767 80.4826 8.16499 82.6701C41.256 103.026 80.0899 115.088 121.679 115.939C123.269 115.969 124.86 116.06 126.45 116.06C129.174 116.06 131.832 115.939 134.526 115.848C178.161 114.328 218.622 100.505 252.471 77.6875C252.563 77.6267 252.655 77.5355 252.746 77.4748C256.967 74.6492 261.034 71.611 265.009 68.512C267.119 66.8713 269.199 65.2003 271.251 63.502C301.369 39.9831 336.17 22.0575 373.998 11.3629C400.144 3.94967 427.727 0 456.262 0C465.861 0 475.341 0.458801 484.698 1.33989C505.034 3.25093 524.789 7.17021 543.749 12.9125C568.06 20.265 591.06 30.595 612.313 43.5074C613.842 44.4493 615.402 45.3942 616.9 46.3634C617.478 46.728 618.062 47.0925 618.64 47.4571C620.444 48.6116 622.218 49.7965 623.992 50.9814C635.524 58.8201 646.254 67.6917 656.071 77.4748C686.039 107.341 707.537 145.592 716.711 188.4C718.091 194.75 719.158 201.225 719.953 207.754Z" fill="#6759C0"/>
</svg>
